<mxfile host="app.diagrams.net" modified="2021-02-17T13:08:17.556Z" agent="5.0 (Windows NT 10.0; Win64; x64) AppleWebKit/537.36 (KHTML, like Gecko) Chrome/87.0.4280.141 Safari/537.36 OPR/73.0.3856.344" etag="z--RopTKLpHMfuJrlEuc" version="14.3.2" type="github">
  <diagram name="Page-1" id="5f0bae14-7c28-e335-631c-24af17079c00">
    <mxGraphModel dx="782" dy="479" grid="1" gridSize="10" guides="1" tooltips="1" connect="1" arrows="1" fold="1" page="1" pageScale="1" pageWidth="1100" pageHeight="850" background="#ffffff" math="0" shadow="0">
      <root>
        <mxCell id="0" />
        <mxCell id="1" parent="0" />
        <mxCell id="39150e848f15840c-1" value="Release 1" style="verticalAlign=top;align=left;spacingTop=8;spacingLeft=2;spacingRight=12;shape=cube;size=10;direction=south;fontStyle=4;html=1;rounded=0;shadow=0;comic=0;labelBackgroundColor=none;strokeWidth=1;fontFamily=Verdana;fontSize=12" parent="1" vertex="1">
          <mxGeometry x="120" y="70" width="210" height="160" as="geometry" />
        </mxCell>
        <mxCell id="zYBQ2tV1xO66oVyMY-6t-7" value="User Stories" style="rounded=0;whiteSpace=wrap;html=1;" vertex="1" parent="1">
          <mxGeometry x="200" y="85" width="85" height="30" as="geometry" />
        </mxCell>
        <mxCell id="zYBQ2tV1xO66oVyMY-6t-8" value="Tech Tasks" style="rounded=0;whiteSpace=wrap;html=1;" vertex="1" parent="1">
          <mxGeometry x="200" y="125" width="85" height="30" as="geometry" />
        </mxCell>
        <mxCell id="zYBQ2tV1xO66oVyMY-6t-9" value="Bugs" style="rounded=0;whiteSpace=wrap;html=1;" vertex="1" parent="1">
          <mxGeometry x="200" y="165" width="85" height="30" as="geometry" />
        </mxCell>
        <mxCell id="zYBQ2tV1xO66oVyMY-6t-14" value="Timeline" style="endArrow=classic;html=1;" edge="1" parent="1">
          <mxGeometry relative="1" as="geometry">
            <mxPoint x="120" y="30" as="sourcePoint" />
            <mxPoint x="790" y="30" as="targetPoint" />
          </mxGeometry>
        </mxCell>
        <mxCell id="zYBQ2tV1xO66oVyMY-6t-16" value="Release 2" style="verticalAlign=top;align=left;spacingTop=8;spacingLeft=2;spacingRight=12;shape=cube;size=10;direction=south;fontStyle=4;html=1;rounded=0;shadow=0;comic=0;labelBackgroundColor=none;strokeWidth=1;fontFamily=Verdana;fontSize=12" vertex="1" parent="1">
          <mxGeometry x="350" y="70" width="210" height="160" as="geometry" />
        </mxCell>
        <mxCell id="zYBQ2tV1xO66oVyMY-6t-17" value="User Stories" style="rounded=0;whiteSpace=wrap;html=1;" vertex="1" parent="1">
          <mxGeometry x="430" y="85" width="85" height="30" as="geometry" />
        </mxCell>
        <mxCell id="zYBQ2tV1xO66oVyMY-6t-18" value="Tech Tasks" style="rounded=0;whiteSpace=wrap;html=1;" vertex="1" parent="1">
          <mxGeometry x="430" y="125" width="85" height="30" as="geometry" />
        </mxCell>
        <mxCell id="zYBQ2tV1xO66oVyMY-6t-19" value="Bugs" style="rounded=0;whiteSpace=wrap;html=1;" vertex="1" parent="1">
          <mxGeometry x="430" y="165" width="85" height="30" as="geometry" />
        </mxCell>
        <mxCell id="zYBQ2tV1xO66oVyMY-6t-20" value="Release N" style="verticalAlign=top;align=left;spacingTop=8;spacingLeft=2;spacingRight=12;shape=cube;size=10;direction=south;fontStyle=4;html=1;rounded=0;shadow=0;comic=0;labelBackgroundColor=none;strokeWidth=1;fontFamily=Verdana;fontSize=12" vertex="1" parent="1">
          <mxGeometry x="580" y="70" width="210" height="160" as="geometry" />
        </mxCell>
        <mxCell id="zYBQ2tV1xO66oVyMY-6t-21" value="User Stories" style="rounded=0;whiteSpace=wrap;html=1;" vertex="1" parent="1">
          <mxGeometry x="660" y="85" width="85" height="30" as="geometry" />
        </mxCell>
        <mxCell id="zYBQ2tV1xO66oVyMY-6t-22" value="Tech Tasks" style="rounded=0;whiteSpace=wrap;html=1;" vertex="1" parent="1">
          <mxGeometry x="660" y="125" width="85" height="30" as="geometry" />
        </mxCell>
        <mxCell id="zYBQ2tV1xO66oVyMY-6t-23" value="Bugs" style="rounded=0;whiteSpace=wrap;html=1;" vertex="1" parent="1">
          <mxGeometry x="660" y="165" width="85" height="30" as="geometry" />
        </mxCell>
      </root>
    </mxGraphModel>
  </diagram>
</mxfile>
